<?xml version="1.0" encoding="iso-8859-1"?>
<!-- Generator: Adobe Illustrator 19.0.0, SVG Export Plug-In . SVG Version: 6.00 Build 0)  -->
<svg version="1.1" id="Capa_1" xmlns="http://www.w3.org/2000/svg" xmlns:xlink="http://www.w3.org/1999/xlink" x="0px" y="0px"
	 viewBox="0 0 480 480" style="enable-background:new 0 0 480 480;" xml:space="preserve">
<g>
	
		<linearGradient id="SVGID_1_" gradientUnits="userSpaceOnUse" x1="-26.875" y1="558.627" x2="-26.875" y2="621.962" gradientTransform="matrix(8 0 0 -8 455 4941.0005)">
		<stop  offset="0" style="stop-color:#006DF0"/>
		<stop  offset="1" style="stop-color:#00E7F0"/>
	</linearGradient>
	<path style="fill:url(#SVGID_1_);" d="M240,208c57.438,0,104-46.562,104-104S297.438,0,240,0S136,46.562,136,104
		C136.066,161.41,182.59,207.934,240,208z M240,16c48.601,0,88,39.399,88,88s-39.399,88-88,88s-88-39.399-88-88
		C152.057,55.423,191.423,16.057,240,16z"/>
	
		<linearGradient id="SVGID_2_" gradientUnits="userSpaceOnUse" x1="-26.875" y1="558.627" x2="-26.875" y2="621.962" gradientTransform="matrix(8 0 0 -8 455 4941.0005)">
		<stop  offset="0" style="stop-color:#006DF0"/>
		<stop  offset="1" style="stop-color:#00E7F0"/>
	</linearGradient>
	<path style="fill:url(#SVGID_2_);" d="M479.76,472c0.152-2.64,0.24-5.28,0.24-8c0-132.548-107.452-240-240-240S0,331.452,0,464
		c0,2.72,0.088,5.36,0.24,8v0.496c0.078,0.502,0.207,0.996,0.384,1.472c0.074,0.444,0.187,0.88,0.336,1.304
		c0.272,0.517,0.599,1.002,0.976,1.448c0.221,0.353,0.467,0.69,0.736,1.008c0.489,0.422,1.026,0.785,1.6,1.08
		c0.288,0.211,0.59,0.404,0.904,0.576C6.146,479.791,7.188,480,8.24,480h463.52c1.047-0.002,2.083-0.211,3.048-0.616
		c0.315-0.177,0.62-0.372,0.912-0.584c0.573-0.294,1.11-0.654,1.6-1.072c0.275-0.316,0.521-0.656,0.736-1.016
		c0.743-0.737,1.207-1.71,1.312-2.752c0.177-0.474,0.306-0.964,0.384-1.464c0-0.16,0-0.328,0-0.496L479.76,472z M16,464
		c0-123.712,100.288-224,224-224s224,100.288,224,224H16z"/>
</g>
<g>
</g>
<g>
</g>
<g>
</g>
<g>
</g>
<g>
</g>
<g>
</g>
<g>
</g>
<g>
</g>
<g>
</g>
<g>
</g>
<g>
</g>
<g>
</g>
<g>
</g>
<g>
</g>
<g>
</g>
</svg>
