<?xml version="1.0" encoding="iso-8859-1"?>
<!-- Generator: Adobe Illustrator 19.0.0, SVG Export Plug-In . SVG Version: 6.00 Build 0)  -->
<svg version="1.1" id="Capa_1" xmlns="http://www.w3.org/2000/svg" xmlns:xlink="http://www.w3.org/1999/xlink" x="0px" y="0px"
	 viewBox="0 0 480 480" style="enable-background:new 0 0 480 480;" xml:space="preserve">
<linearGradient id="SVGID_1_" gradientUnits="userSpaceOnUse" x1="-26.875" y1="570.069" x2="-26.875" y2="611.948" gradientTransform="matrix(8 0 0 -8 455 4941)">
	<stop  offset="0" style="stop-color:#006DF0"/>
	<stop  offset="1" style="stop-color:#00E7F0"/>
</linearGradient>
<path style="fill:url(#SVGID_1_);" d="M328,392H152C68.053,392,0,323.947,0,240S68.053,88,152,88h176c83.947,0,152,68.053,152,152
	S411.947,392,328,392z M152,104c-75.111,0-136,60.889-136,136s60.889,136,136,136h176c75.111,0,136-60.889,136-136
	s-60.889-136-136-136H152z"/>
<linearGradient id="SVGID_2_" gradientUnits="userSpaceOnUse" x1="-15.875" y1="570.069" x2="-15.875" y2="611.948" gradientTransform="matrix(8 0 0 -8 455 4941)">
	<stop  offset="0" style="stop-color:#006DF0"/>
	<stop  offset="1" style="stop-color:#00E7F0"/>
</linearGradient>
<path style="fill:url(#SVGID_2_);" d="M328,344c-57.438,0-104-46.562-104-104s46.562-104,104-104s104,46.562,104,104
	C431.934,297.41,385.41,343.934,328,344z M328,152c-48.601,0-88,39.399-88,88s39.399,88,88,88s88-39.399,88-88
	C415.943,191.423,376.577,152.057,328,152z"/>
<g>
</g>
<g>
</g>
<g>
</g>
<g>
</g>
<g>
</g>
<g>
</g>
<g>
</g>
<g>
</g>
<g>
</g>
<g>
</g>
<g>
</g>
<g>
</g>
<g>
</g>
<g>
</g>
<g>
</g>
</svg>
