<?xml version="1.0" encoding="iso-8859-1"?>
<!-- Generator: Adobe Illustrator 19.0.0, SVG Export Plug-In . SVG Version: 6.00 Build 0)  -->
<svg version="1.1" id="Capa_1" xmlns="http://www.w3.org/2000/svg" xmlns:xlink="http://www.w3.org/1999/xlink" x="0px" y="0px"
	 viewBox="0 0 480 480" style="enable-background:new 0 0 480 480;" xml:space="preserve">
<linearGradient id="SVGID_1_" gradientUnits="userSpaceOnUse" x1="-26.875" y1="556.765" x2="-26.875" y2="621.508" gradientTransform="matrix(8 0 0 -8 455 4941)">
	<stop  offset="0" style="stop-color:#006DF0"/>
	<stop  offset="1" style="stop-color:#00E7F0"/>
</linearGradient>
<path style="fill:url(#SVGID_1_);" d="M472,232h-40.2C427.523,132.315,347.685,52.477,248,48.2V8c0-4.418-3.582-8-8-8s-8,3.582-8,8
	v40.2C132.315,52.477,52.477,132.315,48.2,232H8c-4.418,0-8,3.582-8,8s3.582,8,8,8h40.2c4.277,99.685,84.115,179.523,183.8,183.8
	V472c0,4.418,3.582,8,8,8s8-3.582,8-8v-40.2c99.685-4.277,179.523-84.115,183.8-183.8H472c4.418,0,8-3.582,8-8S476.418,232,472,232z
	 M248,415.8V376c0-4.418-3.582-8-8-8s-8,3.582-8,8v39.8C141.141,411.559,68.441,338.859,64.2,248H104c4.418,0,8-3.582,8-8
	s-3.582-8-8-8H64.2C68.441,141.141,141.141,68.441,232,64.2V104c0,4.418,3.582,8,8,8s8-3.582,8-8V64.2
	c90.859,4.241,163.559,76.941,167.8,167.8H376c-4.418,0-8,3.582-8,8s3.582,8,8,8h39.8C411.559,338.859,338.859,411.559,248,415.8z"
	/>
<g>
</g>
<g>
</g>
<g>
</g>
<g>
</g>
<g>
</g>
<g>
</g>
<g>
</g>
<g>
</g>
<g>
</g>
<g>
</g>
<g>
</g>
<g>
</g>
<g>
</g>
<g>
</g>
<g>
</g>
</svg>
