<?xml version="1.0" encoding="iso-8859-1"?>
<!-- Generator: Adobe Illustrator 19.0.0, SVG Export Plug-In . SVG Version: 6.00 Build 0)  -->
<svg version="1.1" id="Capa_1" xmlns="http://www.w3.org/2000/svg" xmlns:xlink="http://www.w3.org/1999/xlink" x="0px" y="0px"
	 viewBox="0 0 481.79 481.79" style="enable-background:new 0 0 481.79 481.79;" xml:space="preserve">
<linearGradient id="SVGID_1_" gradientUnits="userSpaceOnUse" x1="-26.6701" y1="558.8869" x2="-26.6701" y2="623.6009" gradientTransform="matrix(8 0 0 -8 454.2561 4956.3169)">
	<stop  offset="0" style="stop-color:#006DF0"/>
	<stop  offset="1" style="stop-color:#00E7F0"/>
</linearGradient>
<path style="fill:url(#SVGID_1_);" d="M392.106,305.702c-27.976-0.051-54.28,13.312-70.736,35.936
	c-48-22.36-105.072-48.968-150.504-70.2c6.987-19.208,6.987-40.264,0-59.472c45.432-21.232,102.496-47.84,150.504-70.2
	c29.065,39.529,84.673,48.012,124.202,18.947s48.012-84.673,18.947-124.202c-29.065-39.529-84.673-48.012-124.202-18.947
	c-34.549,25.404-46.02,71.861-27.267,110.426c-47.688,22.216-104,48.472-148.96,69.48c-24.429-42.016-78.292-56.272-120.308-31.844
	s-56.272,78.292-31.844,120.308s78.292,56.272,120.308,31.844c13.197-7.673,24.171-18.647,31.844-31.844
	c44.952,21.016,101.272,47.264,148.96,69.48c-21.084,43.721-2.733,96.256,40.988,117.34s96.256,2.733,117.34-40.988
	s2.733-96.256-40.988-117.34C418.45,308.668,405.362,305.686,392.106,305.702L392.106,305.702z M392.106,17.702
	c39.764,0,72,32.235,72,72s-32.236,72-72,72s-72-32.236-72-72C320.155,49.957,352.362,17.75,392.106,17.702z M88.106,313.702
	c-39.764,0.027-72.022-32.187-72.049-71.951c-0.027-39.765,32.187-72.022,71.951-72.049c28.042-0.019,53.544,16.245,65.353,41.68
	c9.013,19.231,9.013,41.473,0,60.704C141.515,297.434,116.086,313.651,88.106,313.702z M392.106,465.702c-39.764,0-72-32.236-72-72
	s32.236-72,72-72s72,32.236,72,72C464.058,433.446,431.851,465.653,392.106,465.702z"/>
<g>
</g>
<g>
</g>
<g>
</g>
<g>
</g>
<g>
</g>
<g>
</g>
<g>
</g>
<g>
</g>
<g>
</g>
<g>
</g>
<g>
</g>
<g>
</g>
<g>
</g>
<g>
</g>
<g>
</g>
</svg>
