<?xml version="1.0" encoding="iso-8859-1"?>
<!-- Generator: Adobe Illustrator 19.0.0, SVG Export Plug-In . SVG Version: 6.00 Build 0)  -->
<svg version="1.1" id="Capa_1" xmlns="http://www.w3.org/2000/svg" xmlns:xlink="http://www.w3.org/1999/xlink" x="0px" y="0px"
	 viewBox="0 0 480 480" style="enable-background:new 0 0 480 480;" xml:space="preserve">
<linearGradient id="SVGID_1_" gradientUnits="userSpaceOnUse" x1="-9.875" y1="563.345" x2="-9.875" y2="617.116" gradientTransform="matrix(8 0 0 -8 455 4941)">
	<stop  offset="0" style="stop-color:#006DF0"/>
	<stop  offset="1" style="stop-color:#00E7F0"/>
</linearGradient>
<path style="fill:url(#SVGID_1_);" d="M368,263.36V384c0,4.418,3.582,8,8,8s8-3.582,8-8V263.36
	c30.574-4.391,51.8-32.736,47.409-63.311c-3.529-24.574-22.835-43.88-47.409-47.409V96c0-4.418-3.582-8-8-8s-8,3.582-8,8v56.64
	c-30.574,4.391-51.8,32.736-47.409,63.311C324.12,240.525,343.426,259.831,368,263.36z M376,168c22.091,0,40,17.909,40,40
	s-17.909,40-40,40s-40-17.909-40-40C336.026,185.92,353.92,168.026,376,168z"/>
<g>
	
		<linearGradient id="SVGID_2_" gradientUnits="userSpaceOnUse" x1="-26.875" y1="563.345" x2="-26.875" y2="617.116" gradientTransform="matrix(8 0 0 -8 455 4941)">
		<stop  offset="0" style="stop-color:#006DF0"/>
		<stop  offset="1" style="stop-color:#00E7F0"/>
	</linearGradient>
	<path style="fill:url(#SVGID_2_);" d="M472,56H8c-4.418,0-8,3.582-8,8v352c0,4.418,3.582,8,8,8h464c4.418,0,8-3.582,8-8V64
		C480,59.582,476.418,56,472,56z M464,408H16V72h448V408z"/>
	
		<linearGradient id="SVGID_3_" gradientUnits="userSpaceOnUse" x1="-26.875" y1="563.345" x2="-26.875" y2="617.116" gradientTransform="matrix(8 0 0 -8 455 4941)">
		<stop  offset="0" style="stop-color:#006DF0"/>
		<stop  offset="1" style="stop-color:#00E7F0"/>
	</linearGradient>
	<path style="fill:url(#SVGID_3_);" d="M232,359.36V384c0,4.418,3.582,8,8,8s8-3.582,8-8v-24.64
		c30.574-4.391,51.8-32.736,47.409-63.311c-3.529-24.574-22.835-43.88-47.409-47.409V96c0-4.418-3.582-8-8-8s-8,3.582-8,8v152.64
		c-30.574,4.391-51.8,32.736-47.409,63.311C188.12,336.525,207.426,355.831,232,359.36z M240,264c22.091,0,40,17.909,40,40
		s-17.909,40-40,40s-40-17.909-40-40C200.026,281.92,217.92,264.026,240,264z"/>
	
		<linearGradient id="SVGID_4_" gradientUnits="userSpaceOnUse" x1="-43.875" y1="563.345" x2="-43.875" y2="617.116" gradientTransform="matrix(8 0 0 -8 455 4941)">
		<stop  offset="0" style="stop-color:#006DF0"/>
		<stop  offset="1" style="stop-color:#00E7F0"/>
	</linearGradient>
	<path style="fill:url(#SVGID_4_);" d="M96,231.36V384c0,4.418,3.582,8,8,8s8-3.582,8-8V231.36
		c30.574-4.391,51.8-32.736,47.409-63.311c-3.529-24.574-22.835-43.88-47.409-47.409V96c0-4.418-3.582-8-8-8s-8,3.582-8,8v24.64
		c-30.574,4.391-51.8,32.736-47.409,63.311C52.12,208.525,71.426,227.831,96,231.36z M104,136c22.091,0,40,17.909,40,40
		s-17.909,40-40,40s-40-17.909-40-40C64.026,153.92,81.92,136.026,104,136z"/>
</g>
<g>
</g>
<g>
</g>
<g>
</g>
<g>
</g>
<g>
</g>
<g>
</g>
<g>
</g>
<g>
</g>
<g>
</g>
<g>
</g>
<g>
</g>
<g>
</g>
<g>
</g>
<g>
</g>
<g>
</g>
</svg>
