<?xml version="1.0" encoding="iso-8859-1"?>
<!-- Generator: Adobe Illustrator 19.0.0, SVG Export Plug-In . SVG Version: 6.00 Build 0)  -->
<svg version="1.1" id="Capa_1" xmlns="http://www.w3.org/2000/svg" xmlns:xlink="http://www.w3.org/1999/xlink" x="0px" y="0px"
	 viewBox="0 0 480 480" style="enable-background:new 0 0 480 480;" xml:space="preserve">
<g>
	
		<linearGradient id="SVGID_1_" gradientUnits="userSpaceOnUse" x1="-26.875" y1="557.065" x2="-26.875" y2="623.344" gradientTransform="matrix(8 0 0 -8 455 4941)">
		<stop  offset="0" style="stop-color:#006DF0"/>
		<stop  offset="1" style="stop-color:#00E7F0"/>
	</linearGradient>
	<path style="fill:url(#SVGID_1_);" d="M440,112h-32V8c0-4.418-3.582-8-8-8H80c-4.418,0-8,3.582-8,8v104H40
		c-22.08,0.026-39.974,17.92-40,40v176c0.026,22.08,17.92,39.974,40,40h32v104c0,4.418,3.582,8,8,8h320c4.418,0,8-3.582,8-8V368h32
		c22.08-0.026,39.974-17.92,40-40V152C479.974,129.92,462.08,112.026,440,112z M88,16h304v96H88V16z M392,464H88V288h304V464z
		 M464,328c0,13.255-10.745,24-24,24h-32v-72c0-4.418-3.582-8-8-8H80c-4.418,0-8,3.582-8,8v72H40c-13.255,0-24-10.745-24-24V152
		c0-13.255,10.745-24,24-24h400c13.255,0,24,10.745,24,24V328z"/>
	
		<linearGradient id="SVGID_2_" gradientUnits="userSpaceOnUse" x1="-26.875" y1="557.065" x2="-26.875" y2="623.344" gradientTransform="matrix(8 0 0 -8 455 4941)">
		<stop  offset="0" style="stop-color:#006DF0"/>
		<stop  offset="1" style="stop-color:#00E7F0"/>
	</linearGradient>
	<path style="fill:url(#SVGID_2_);" d="M336,336H144c-4.418,0-8,3.582-8,8s3.582,8,8,8h192c4.418,0,8-3.582,8-8S340.418,336,336,336
		z"/>
	
		<linearGradient id="SVGID_3_" gradientUnits="userSpaceOnUse" x1="-26.875" y1="557.065" x2="-26.875" y2="623.344" gradientTransform="matrix(8 0 0 -8 455 4941)">
		<stop  offset="0" style="stop-color:#006DF0"/>
		<stop  offset="1" style="stop-color:#00E7F0"/>
	</linearGradient>
	<path style="fill:url(#SVGID_3_);" d="M336,400H144c-4.418,0-8,3.582-8,8s3.582,8,8,8h192c4.418,0,8-3.582,8-8S340.418,400,336,400
		z"/>
</g>
<g>
</g>
<g>
</g>
<g>
</g>
<g>
</g>
<g>
</g>
<g>
</g>
<g>
</g>
<g>
</g>
<g>
</g>
<g>
</g>
<g>
</g>
<g>
</g>
<g>
</g>
<g>
</g>
<g>
</g>
</svg>
