<?xml version="1.0" encoding="iso-8859-1"?>
<!-- Generator: Adobe Illustrator 19.0.0, SVG Export Plug-In . SVG Version: 6.00 Build 0)  -->
<svg version="1.1" id="Capa_1" xmlns="http://www.w3.org/2000/svg" xmlns:xlink="http://www.w3.org/1999/xlink" x="0px" y="0px"
	 viewBox="0 0 480 480" style="enable-background:new 0 0 480 480;" xml:space="preserve">
<g>
	
		<linearGradient id="SVGID_1_" gradientUnits="userSpaceOnUse" x1="-26.875" y1="559.881" x2="-26.875" y2="622.596" gradientTransform="matrix(8 0 0 -8 455.0001 4941)">
		<stop  offset="0" style="stop-color:#006DF0"/>
		<stop  offset="1" style="stop-color:#00E7F0"/>
	</linearGradient>
	<path style="fill:url(#SVGID_1_);" d="M408,200c0-4.418-3.582-8-8-8s-8,3.582-8,8c0,83.947-68.053,152-152,152S88,283.947,88,200
		c0-4.418-3.582-8-8-8s-8,3.582-8,8c0.148,89.577,70.527,163.294,160,167.592V464h-88c-4.418,0-8,3.582-8,8s3.582,8,8,8h192
		c4.418,0,8-3.582,8-8s-3.582-8-8-8h-88v-96.408C337.473,363.294,407.852,289.577,408,200L408,200z"/>
	
		<linearGradient id="SVGID_2_" gradientUnits="userSpaceOnUse" x1="-26.875" y1="559.881" x2="-26.875" y2="622.596" gradientTransform="matrix(8 0 0 -8 455.0001 4941)">
		<stop  offset="0" style="stop-color:#006DF0"/>
		<stop  offset="1" style="stop-color:#00E7F0"/>
	</linearGradient>
	<path style="fill:url(#SVGID_2_);" d="M240,304c57.41-0.066,103.934-46.59,104-104v-96C344,46.562,297.438,0,240,0
		S136,46.562,136,104v96C136.066,257.41,182.59,303.934,240,304z M152,104c0-48.601,39.399-88,88-88s88,39.399,88,88v96
		c0,48.601-39.399,88-88,88s-88-39.399-88-88V104z"/>
</g>
<g>
</g>
<g>
</g>
<g>
</g>
<g>
</g>
<g>
</g>
<g>
</g>
<g>
</g>
<g>
</g>
<g>
</g>
<g>
</g>
<g>
</g>
<g>
</g>
<g>
</g>
<g>
</g>
<g>
</g>
</svg>
