<?xml version="1.0" encoding="iso-8859-1"?>
<!-- Generator: Adobe Illustrator 19.0.0, SVG Export Plug-In . SVG Version: 6.00 Build 0)  -->
<svg version="1.1" id="Capa_1" xmlns="http://www.w3.org/2000/svg" xmlns:xlink="http://www.w3.org/1999/xlink" x="0px" y="0px"
	 viewBox="0 0 479.902 479.902" style="enable-background:new 0 0 479.902 479.902;" xml:space="preserve">
<linearGradient id="SVGID_1_" gradientUnits="userSpaceOnUse" x1="-36.875" y1="562.2159" x2="-36.875" y2="617.8199" gradientTransform="matrix(8 0 0 -8 454.9999 4940.4678)">
	<stop  offset="0" style="stop-color:#006DF0"/>
	<stop  offset="1" style="stop-color:#00E7F0"/>
</linearGradient>
<path style="fill:url(#SVGID_1_);" d="M315.44,40.741c-2.786-1.325-6.086-0.929-8.48,1.016l-125.8,102.184H8c-4.418,0-8,3.582-8,8
	v176c0,4.418,3.582,8,8,8h173.16l125.8,102.208c3.431,2.784,8.469,2.258,11.253-1.173c1.155-1.424,1.786-3.202,1.787-5.035v-384
	C319.991,44.864,318.218,42.064,315.44,40.741z M16,159.941h160v160H16V159.941z M304,415.141l-112-91.008V155.749l112-91.008
	V415.141z"/>
<linearGradient id="SVGID_2_" gradientUnits="userSpaceOnUse" x1="-3.8872" y1="562.2159" x2="-3.8872" y2="617.8199" gradientTransform="matrix(8 0 0 -8 454.9999 4940.4678)">
	<stop  offset="0" style="stop-color:#006DF0"/>
	<stop  offset="1" style="stop-color:#00E7F0"/>
</linearGradient>
<path style="fill:url(#SVGID_2_);" d="M435.312,239.941l42.344-42.344c3.07-3.178,2.982-8.243-0.196-11.312
	c-3.1-2.994-8.015-2.994-11.116,0L424,228.629l-42.344-42.344c-3.178-3.07-8.242-2.982-11.312,0.196
	c-2.994,3.1-2.994,8.015,0,11.116l42.344,42.344l-42.344,42.344c-3.178,3.07-3.266,8.134-0.196,11.312s8.134,3.266,11.312,0.196
	c0.066-0.064,0.132-0.129,0.196-0.196L424,251.253l42.344,42.344c3.178,3.07,8.242,2.982,11.312-0.196
	c2.995-3.1,2.995-8.016,0-11.116L435.312,239.941z"/>
<g>
</g>
<g>
</g>
<g>
</g>
<g>
</g>
<g>
</g>
<g>
</g>
<g>
</g>
<g>
</g>
<g>
</g>
<g>
</g>
<g>
</g>
<g>
</g>
<g>
</g>
<g>
</g>
<g>
</g>
</svg>
