<?xml version="1.0" encoding="iso-8859-1"?>
<!-- Generator: Adobe Illustrator 19.0.0, SVG Export Plug-In . SVG Version: 6.00 Build 0)  -->
<svg version="1.1" id="Capa_1" xmlns="http://www.w3.org/2000/svg" xmlns:xlink="http://www.w3.org/1999/xlink" x="0px" y="0px"
	 viewBox="0 0 480 480" style="enable-background:new 0 0 480 480;" xml:space="preserve">
<linearGradient id="SVGID_1_" gradientUnits="userSpaceOnUse" x1="-26.875" y1="557.565" x2="-26.875" y2="620.476" gradientTransform="matrix(8 0 0 -8 455 4941)">
	<stop  offset="0" style="stop-color:#006DF0"/>
	<stop  offset="1" style="stop-color:#00E7F0"/>
</linearGradient>
<path style="fill:url(#SVGID_1_);" d="M240,480C107.452,480,0,372.548,0,240S107.452,0,240,0s240,107.452,240,240
	C479.85,372.486,372.486,479.85,240,480z M240,16C116.288,16,16,116.288,16,240s100.288,224,224,224s224-100.288,224-224
	C463.859,116.347,363.653,16.141,240,16z"/>
<g>
	
		<linearGradient id="SVGID_2_" gradientUnits="userSpaceOnUse" x1="-17.875" y1="557.565" x2="-17.875" y2="620.476" gradientTransform="matrix(8 0 0 -8 455 4941)">
		<stop  offset="0" style="stop-color:#006DF0"/>
		<stop  offset="1" style="stop-color:#00E7F0"/>
	</linearGradient>
	<path style="fill:url(#SVGID_2_);" d="M312,216c-26.51,0-48-21.49-48-48s21.49-48,48-48s48,21.49,48,48
		C359.974,194.499,338.499,215.974,312,216z M312,136c-17.673,0-32,14.327-32,32s14.327,32,32,32s32-14.327,32-32
		S329.673,136,312,136z"/>
	
		<linearGradient id="SVGID_3_" gradientUnits="userSpaceOnUse" x1="-17.875" y1="557.565" x2="-17.875" y2="620.476" gradientTransform="matrix(8 0 0 -8 455 4941)">
		<stop  offset="0" style="stop-color:#006DF0"/>
		<stop  offset="1" style="stop-color:#00E7F0"/>
	</linearGradient>
	<path style="fill:url(#SVGID_3_);" d="M312,360c-26.51,0-48-21.49-48-48s21.49-48,48-48s48,21.49,48,48
		C359.974,338.499,338.499,359.974,312,360z M312,280c-17.673,0-32,14.327-32,32s14.327,32,32,32s32-14.327,32-32
		S329.673,280,312,280z"/>
	
		<linearGradient id="SVGID_4_" gradientUnits="userSpaceOnUse" x1="-35.875" y1="557.565" x2="-35.875" y2="620.476" gradientTransform="matrix(8 0 0 -8 455 4941)">
		<stop  offset="0" style="stop-color:#006DF0"/>
		<stop  offset="1" style="stop-color:#00E7F0"/>
	</linearGradient>
	<path style="fill:url(#SVGID_4_);" d="M168,216c-26.51,0-48-21.49-48-48s21.49-48,48-48s48,21.49,48,48
		C215.974,194.499,194.499,215.974,168,216z M168,136c-17.673,0-32,14.327-32,32s14.327,32,32,32s32-14.327,32-32
		S185.673,136,168,136z"/>
	
		<linearGradient id="SVGID_5_" gradientUnits="userSpaceOnUse" x1="-35.875" y1="557.565" x2="-35.875" y2="620.476" gradientTransform="matrix(8 0 0 -8 455 4941)">
		<stop  offset="0" style="stop-color:#006DF0"/>
		<stop  offset="1" style="stop-color:#00E7F0"/>
	</linearGradient>
	<path style="fill:url(#SVGID_5_);" d="M168,360c-26.51,0-48-21.49-48-48s21.49-48,48-48s48,21.49,48,48
		C215.974,338.499,194.499,359.974,168,360z M168,280c-17.673,0-32,14.327-32,32s14.327,32,32,32s32-14.327,32-32
		S185.673,280,168,280z"/>
</g>
<g>
</g>
<g>
</g>
<g>
</g>
<g>
</g>
<g>
</g>
<g>
</g>
<g>
</g>
<g>
</g>
<g>
</g>
<g>
</g>
<g>
</g>
<g>
</g>
<g>
</g>
<g>
</g>
<g>
</g>
</svg>
