<?xml version="1.0" encoding="iso-8859-1"?>
<!-- Generator: Adobe Illustrator 19.0.0, SVG Export Plug-In . SVG Version: 6.00 Build 0)  -->
<svg version="1.1" id="Capa_1" xmlns="http://www.w3.org/2000/svg" xmlns:xlink="http://www.w3.org/1999/xlink" x="0px" y="0px"
	 viewBox="0 0 480.608 480.608" style="enable-background:new 0 0 480.608 480.608;" xml:space="preserve">
<linearGradient id="SVGID_1_" gradientUnits="userSpaceOnUse" x1="-26.305" y1="557.8231" x2="-26.305" y2="621.0361" gradientTransform="matrix(8 0 0 -8 450.7437 4946.4727)">
	<stop  offset="0" style="stop-color:#006DF0"/>
	<stop  offset="1" style="stop-color:#00E7F0"/>
</linearGradient>
<path style="fill:url(#SVGID_1_);" d="M410.656,409.792c93.606-94.083,93.219-246.234-0.864-339.84s-246.234-93.219-339.84,0.864
	s-93.219,246.234,0.864,339.84c93.745,93.269,245.231,93.269,338.976,0c0.16-0.136,0.368-0.192,0.52-0.344
	S410.52,409.952,410.656,409.792L410.656,409.792z M259.92,248.608h204.488c-1.903,53.838-23.214,105.172-60,144.528L259.92,248.608
	z M464.408,232.608h-215.8v-215.8C365.952,21.136,460.08,115.264,464.408,232.608L464.408,232.608z M16.608,240.608
	c0.155-120.526,95.555-219.371,216-223.8v223.8c0.005,1.049,0.214,2.087,0.616,3.056c0.399,0.976,0.989,1.863,1.736,2.608
	l158.176,158.176c-90.397,84.327-232.039,79.407-316.367-10.991C38.07,351.973,16.567,297.341,16.608,240.608L16.608,240.608z"/>
<g>
</g>
<g>
</g>
<g>
</g>
<g>
</g>
<g>
</g>
<g>
</g>
<g>
</g>
<g>
</g>
<g>
</g>
<g>
</g>
<g>
</g>
<g>
</g>
<g>
</g>
<g>
</g>
<g>
</g>
</svg>
