<?xml version="1.0" encoding="iso-8859-1"?>
<!-- Generator: Adobe Illustrator 19.0.0, SVG Export Plug-In . SVG Version: 6.00 Build 0)  -->
<svg version="1.1" id="Capa_1" xmlns="http://www.w3.org/2000/svg" xmlns:xlink="http://www.w3.org/1999/xlink" x="0px" y="0px"
	 viewBox="0 0 480 480" style="enable-background:new 0 0 480 480;" xml:space="preserve">
<linearGradient id="SVGID_1_" gradientUnits="userSpaceOnUse" x1="-26.875" y1="557.625" x2="-26.875" y2="622.844" gradientTransform="matrix(8 0 0 -8 455 4941)">
	<stop  offset="0" style="stop-color:#006DF0"/>
	<stop  offset="1" style="stop-color:#00E7F0"/>
</linearGradient>
<path style="fill:url(#SVGID_1_);" d="M407.896,135.496c-0.04-0.701-0.177-1.393-0.408-2.056c-0.088-0.256-0.152-0.504-0.264-0.752
	c-0.387-0.872-0.929-1.666-1.6-2.344l-128-128c-0.693-0.678-1.507-1.221-2.4-1.6c-0.232-0.104-0.456-0.168-0.688-0.248
	c-0.698-0.247-1.428-0.393-2.168-0.432C272.288,0.08,272.152,0,272,0H80c-4.418,0-8,3.582-8,8v464c0,4.418,3.582,8,8,8h320
	c4.418,0,8-3.582,8-8V136C408,135.824,407.912,135.672,407.896,135.496z M380.688,128H280V27.312L380.688,128z M88,464V16h176v120
	c0,4.418,3.582,8,8,8h120v320H88z"/>
<g>
</g>
<g>
</g>
<g>
</g>
<g>
</g>
<g>
</g>
<g>
</g>
<g>
</g>
<g>
</g>
<g>
</g>
<g>
</g>
<g>
</g>
<g>
</g>
<g>
</g>
<g>
</g>
<g>
</g>
</svg>
