<?xml version="1.0" encoding="iso-8859-1"?>
<!-- Generator: Adobe Illustrator 19.0.0, SVG Export Plug-In . SVG Version: 6.00 Build 0)  -->
<svg version="1.1" id="Capa_1" xmlns="http://www.w3.org/2000/svg" xmlns:xlink="http://www.w3.org/1999/xlink" x="0px" y="0px"
	 viewBox="0 0 480 480" style="enable-background:new 0 0 480 480;" xml:space="preserve">
<linearGradient id="SVGID_1_" gradientUnits="userSpaceOnUse" x1="-36.875" y1="560.0587" x2="-36.875" y2="620.8527" gradientTransform="matrix(8 0 0 -8 455 4940.8525)">
	<stop  offset="0" style="stop-color:#006DF0"/>
	<stop  offset="1" style="stop-color:#00E7F0"/>
</linearGradient>
<path style="fill:url(#SVGID_1_);" d="M315.44,40.784c-2.79-1.316-6.087-0.922-8.488,1.016l-125.8,102.184H8c-4.418,0-8,3.582-8,8
	v176c0,4.418,3.582,8,8,8h173.152l125.8,102.208c3.428,2.788,8.466,2.269,11.254-1.158c1.161-1.427,1.794-3.21,1.794-5.05v-384
	C319.991,44.906,318.218,42.107,315.44,40.784z M16,159.984h160v160H16V159.984z M304,415.184l-112-91.008V155.792l112-91.008
	V415.184z"/>
<g>
	
		<linearGradient id="SVGID_2_" gradientUnits="userSpaceOnUse" x1="-1.2657" y1="560.0587" x2="-1.2657" y2="620.8527" gradientTransform="matrix(8 0 0 -8 455 4940.8525)">
		<stop  offset="0" style="stop-color:#006DF0"/>
		<stop  offset="1" style="stop-color:#00E7F0"/>
	</linearGradient>
	<path style="fill:url(#SVGID_2_);" d="M423.472,88.456c-3.087-3.16-8.152-3.22-11.313-0.132c-3.16,3.087-3.22,8.152-0.132,11.313
		c0.062,0.063,0.125,0.126,0.189,0.187C445.128,132.352,464,183.44,464,239.984s-18.872,107.632-51.784,140.16
		c-3.088,3.16-3.029,8.225,0.132,11.313c3.086,3.015,8.008,3.04,11.124,0.055C459.4,355.984,480,300.784,480,239.984
		S459.4,123.984,423.472,88.456z"/>
	
		<linearGradient id="SVGID_3_" gradientUnits="userSpaceOnUse" x1="-6.3808" y1="560.0587" x2="-6.3808" y2="620.8527" gradientTransform="matrix(8 0 0 -8 455 4940.8525)">
		<stop  offset="0" style="stop-color:#006DF0"/>
		<stop  offset="1" style="stop-color:#00E7F0"/>
	</linearGradient>
	<path style="fill:url(#SVGID_3_);" d="M389.512,122.384c-3.159-3.093-8.227-3.039-11.32,0.12s-3.039,8.227,0.12,11.32l0,0
		C402.272,157.176,416,195.88,416,239.984s-13.728,82.808-37.672,106.2c-3.159,3.093-3.213,8.161-0.12,11.32s8.161,3.213,11.32,0.12
		l0,0C416.512,331.24,432,288.368,432,239.984S416.512,148.728,389.512,122.384z"/>
	
		<linearGradient id="SVGID_4_" gradientUnits="userSpaceOnUse" x1="-11.5067" y1="560.0587" x2="-11.5067" y2="620.8527" gradientTransform="matrix(8 0 0 -8 455 4940.8525)">
		<stop  offset="0" style="stop-color:#006DF0"/>
		<stop  offset="1" style="stop-color:#00E7F0"/>
	</linearGradient>
	<path style="fill:url(#SVGID_4_);" d="M355.576,156.104c-3.301-2.936-8.358-2.641-11.294,0.66
		c-2.806,3.155-2.678,7.948,0.294,10.948C358.808,181.192,368,209.584,368,239.984s-9.192,58.792-23.424,72.272
		c-3.301,2.936-3.597,7.993-0.66,11.294c2.936,3.301,7.993,3.597,11.294,0.66c0.126-0.112,0.248-0.227,0.366-0.347
		C373.112,307.256,384,275.12,384,239.984S373.112,172.712,355.576,156.104z"/>
</g>
<g>
</g>
<g>
</g>
<g>
</g>
<g>
</g>
<g>
</g>
<g>
</g>
<g>
</g>
<g>
</g>
<g>
</g>
<g>
</g>
<g>
</g>
<g>
</g>
<g>
</g>
<g>
</g>
<g>
</g>
</svg>
